<?xml version="1.0" standalone="no"?>
<!DOCTYPE svg PUBLIC "-//W3C//DTD SVG 20010904//EN"
 "http://www.w3.org/TR/2001/REC-SVG-20010904/DTD/svg10.dtd">
<svg version="1.0" xmlns="http://www.w3.org/2000/svg"
 width="16.000000pt" height="16.000000pt" viewBox="0 0 16.000000 16.000000"
 preserveAspectRatio="xMidYMid meet">
<metadata>
Created by potrace 1.11, written by Peter Selinger 2001-2013
</metadata>
<g transform="translate(0.000000,16.000000) scale(0.003008,-0.003008)"
fill="#000000" stroke="none">
<path d="M4677 4864 c-1040 -181 -1828 -746 -2724 -1954 -216 -292 -653 -900
-653 -909 0 -9 785 -773 800 -779 10 -4 693 535 1005 792 1029 848 1524 1551
1715 2436 22 106 60 358 60 408 0 30 -2 32 -32 31 -18 0 -95 -12 -171 -25z
m-342 -354 c223 -103 273 -394 98 -567 -177 -175 -467 -126 -572 97 -22 47
-26 69 -26 150 0 85 3 101 28 150 94 181 294 253 472 170z m-650 -584 c28 -7
65 -21 84 -30 52 -28 120 -102 149 -164 23 -49 27 -70 27 -147 0 -77 -4 -98
-27 -147 -34 -73 -103 -142 -176 -176 -80 -37 -194 -42 -274 -12 -76 28 -159
104 -195 178 -24 50 -28 69 -28 147 0 78 4 98 28 150 75 161 247 245 412 201z
m-533 -639 c71 -35 134 -98 167 -167 22 -47 26 -68 26 -150 0 -82 -4 -103 -27
-152 -117 -251 -458 -279 -614 -51 -113 166 -64 388 111 501 63 40 112 52 201
49 64 -3 93 -9 136 -30z"/>
<path d="M4108 4415 c-160 -61 -214 -269 -100 -388 69 -73 192 -95 278 -50 52
28 108 90 124 138 20 61 8 155 -26 206 -59 88 -183 130 -276 94z"/>
<path d="M3492 3794 c-157 -78 -180 -295 -44 -401 61 -46 133 -60 206 -39 109
32 176 119 176 231 0 75 -24 128 -78 177 -71 64 -171 76 -260 32z"/>
<path d="M2950 3197 c-132 -27 -217 -168 -181 -303 14 -52 74 -122 125 -145
57 -26 148 -25 202 2 99 48 156 159 134 263 -27 132 -146 210 -280 183z"/>
<path d="M1370 3090 c-83 -13 -136 -35 -205 -85 -154 -109 -312 -335 -477
-680 -63 -131 -181 -415 -175 -421 1 -1 123 39 272 91 166 58 274 100 283 112
158 211 702 976 697 981 -10 10 -334 12 -395 2z"/>
<path d="M2720 1384 l-485 -374 -86 -273 c-47 -149 -84 -274 -83 -276 6 -7
214 86 389 174 301 153 466 265 608 415 145 152 175 245 163 510 -3 80 -9 157
-13 171 -8 26 -21 17 -493 -347z"/>
</g>
</svg>
